<svg xmlns="http://www.w3.org/2000/svg" width="96" height="152" viewBox="0 0 96 152" shape-rendering="crispEdges">
  <rect width="96" height="152" fill="none"/>
  <path d="M47 128h6v18h-6z" fill="#0a1a2b"/>
  <path d="M48 130h2v16h-2M52 130h1v16h-1" fill="#214f61"/>
  <path d="M47 118h5v6h-5zM45 109h9v8h-9zM41 98h15v10H41zM37 84h23v11H37zM34 70h30v12H34zM31 56h36v13H31zM36 42h27v11H36zM41 30h18v9H41zM45 20h10v7H45z" fill="#0a3a52"/>
  <path d="M46 109h2v8h-2M53 109h1v8h-1M41 98h2v10h-2M55 98h2v10h-2M34 70h2v12h-2M62 70h2v12h-2M45 20h2v7h-2" fill="#63becc"/>
  <path d="M39 84h2v2h-2M59 84h2v2h-2M31 56h2v2h-2M66 56h2v2h-2M36 42h2v2h-2M63 42h2v2h-2" fill="#2d6f86"/>
</svg>
